<svg width="100" height="104" viewBox="0 0 100 104" fill="none" xmlns="http://www.w3.org/2000/svg">
<path fill-rule="evenodd" clip-rule="evenodd" d="M80.5397 1.40072C73.1324 -1.81081 64.5241 1.59054 61.3126 8.99786L53.7069 26.5403L30.6009 12.7852C20.9833 7.05985 8.54535 10.2151 2.81996 19.8327C-6.52753 35.5347 8.04529 54.6143 25.6536 49.7277L46.1158 44.0491L32.5383 75.3652C28.086 85.6343 32.8015 97.5684 43.0706 102.021C59.8364 109.29 76.902 92.403 69.8101 75.5615L59.6011 51.3181C58.3658 48.3846 58.098 45.3425 58.6156 42.498C65.5626 44.077 70.9868 50.3714 70.7714 58.1603L70.6668 61.9443C70.2503 77.0057 90.1336 82.7728 97.8408 69.8261C101.971 62.8888 99.6947 53.9171 92.7574 49.7873L64.421 32.9185C66.6332 31.1982 69.3549 30.045 72.4208 29.7367L76.1873 29.358C91.1788 27.8506 94.3635 7.39417 80.5397 1.40072Z" fill="url(#paint0_linear_654_8)"/>
<defs>
<linearGradient id="paint0_linear_654_8" x1="69.2513" y1="27.6659" x2="31.0637" y2="100.576" gradientUnits="userSpaceOnUse">
<stop stop-color="#A0AAFF"/>
<stop offset="1" stop-color="#424FBF"/>
</linearGradient>
</defs>
</svg>
